<?xml version="1.0" encoding="UTF-8" standalone="no"?>
<!--
==============================================================================
FREECAD TECHDRAW A3 LANDSCAPE TEMPLATE - TASK 7.5
==============================================================================
Standard A3 landscape technical drawing template for FreeCAD TechDraw
Dimensions: 420mm x 297mm (landscape orientation)
Margins: 25mm on all sides
Title block: Industrial standard layout with more space
Drawing area: 370mm x 247mm
==============================================================================
-->
<svg
   width="420mm"
   height="297mm"
   viewBox="0 0 420 297"
   version="1.1"
   id="A3_Landscape_Template"
   xmlns="http://www.w3.org/2000/svg"
   xmlns:freecad="http://www.freecad.org/wiki/Svg_Namespace">

  <!-- Template metadata -->
  <title>FreeCAD A3 Landscape TechDraw Template</title>
  <desc>Standard A3 landscape technical drawing template for headless TechDraw generation</desc>

  <!-- Drawing border and margins -->
  <g id="drawing_border" stroke="black" stroke-width="0.5" fill="none">
    <!-- Outer border (page edge) -->
    <rect x="0" y="0" width="420" height="297" stroke="black" stroke-width="1"/>
    
    <!-- Inner border (drawing area) -->
    <rect x="25" y="25" width="370" height="247" stroke="black" stroke-width="0.7"/>
    
    <!-- Margin guidelines -->
    <rect x="15" y="15" width="390" height="267" stroke="gray" stroke-width="0.25" stroke-dasharray="2,2" opacity="0.5"/>
  </g>

  <!-- Grid lines (optional, for reference) -->
  <g id="reference_grid" stroke="lightgray" stroke-width="0.1" opacity="0.3">
    <!-- Vertical grid lines every 10mm -->
    <g id="vertical_grid">
      <line x1="35" y1="25" x2="35" y2="272"/>
      <line x1="45" y1="25" x2="45" y2="272"/>
      <line x1="55" y1="25" x2="55" y2="272"/>
      <line x1="65" y1="25" x2="65" y2="272"/>
      <line x1="75" y1="25" x2="75" y2="272"/>
      <line x1="85" y1="25" x2="85" y2="272"/>
      <line x1="95" y1="25" x2="95" y2="272"/>
      <line x1="105" y1="25" x2="105" y2="272"/>
      <line x1="115" y1="25" x2="115" y2="272"/>
      <line x1="125" y1="25" x2="125" y2="272"/>
      <line x1="135" y1="25" x2="135" y2="272"/>
      <line x1="145" y1="25" x2="145" y2="272"/>
      <line x1="155" y1="25" x2="155" y2="272"/>
      <line x1="165" y1="25" x2="165" y2="272"/>
      <line x1="175" y1="25" x2="175" y2="272"/>
      <line x1="185" y1="25" x2="185" y2="272"/>
      <line x1="195" y1="25" x2="195" y2="272"/>
      <line x1="205" y1="25" x2="205" y2="272"/>
      <line x1="215" y1="25" x2="215" y2="272"/>
      <line x1="225" y1="25" x2="225" y2="272"/>
      <line x1="235" y1="25" x2="235" y2="272"/>
      <line x1="245" y1="25" x2="245" y2="272"/>
      <line x1="255" y1="25" x2="255" y2="272"/>
      <line x1="265" y1="25" x2="265" y2="272"/>
      <line x1="275" y1="25" x2="275" y2="272"/>
      <line x1="285" y1="25" x2="285" y2="272"/>
      <line x1="295" y1="25" x2="295" y2="272"/>
      <line x1="305" y1="25" x2="305" y2="272"/>
      <line x1="315" y1="25" x2="315" y2="272"/>
      <line x1="325" y1="25" x2="325" y2="272"/>
      <line x1="335" y1="25" x2="335" y2="272"/>
      <line x1="345" y1="25" x2="345" y2="272"/>
      <line x1="355" y1="25" x2="355" y2="272"/>
      <line x1="365" y1="25" x2="365" y2="272"/>
      <line x1="375" y1="25" x2="375" y2="272"/>
      <line x1="385" y1="25" x2="385" y2="272"/>
    </g>
    
    <!-- Horizontal grid lines every 10mm -->
    <g id="horizontal_grid">
      <line x1="25" y1="35" x2="395" y2="35"/>
      <line x1="25" y1="45" x2="395" y2="45"/>
      <line x1="25" y1="55" x2="395" y2="55"/>
      <line x1="25" y1="65" x2="395" y2="65"/>
      <line x1="25" y1="75" x2="395" y2="75"/>
      <line x1="25" y1="85" x2="395" y2="85"/>
      <line x1="25" y1="95" x2="395" y2="95"/>
      <line x1="25" y1="105" x2="395" y2="105"/>
      <line x1="25" y1="115" x2="395" y2="115"/>
      <line x1="25" y1="125" x2="395" y2="125"/>
      <line x1="25" y1="135" x2="395" y2="135"/>
      <line x1="25" y1="145" x2="395" y2="145"/>
      <line x1="25" y1="155" x2="395" y2="155"/>
      <line x1="25" y1="165" x2="395" y2="165"/>
      <line x1="25" y1="175" x2="395" y2="175"/>
      <line x1="25" y1="185" x2="395" y2="185"/>
      <line x1="25" y1="195" x2="395" y2="195"/>
      <line x1="25" y1="205" x2="395" y2="205"/>
      <line x1="25" y1="215" x2="395" y2="215"/>
      <line x1="25" y1="225" x2="395" y2="225"/>
      <line x1="25" y1="235" x2="395" y2="235"/>
      <line x1="25" y1="245" x2="395" y2="245"/>
      <line x1="25" y1="255" x2="395" y2="255"/>
      <line x1="25" y1="265" x2="395" y2="265"/>
    </g>
  </g>

  <!-- Title block (larger for A3) -->
  <g id="title_block" stroke="black" stroke-width="0.5" fill="none">
    <!-- Title block outline -->
    <rect x="270" y="230" width="125" height="42" stroke="black" stroke-width="0.7"/>
    
    <!-- Title block subdivisions -->
    <line x1="270" y1="245" x2="395" y2="245"/>
    <line x1="270" y1="255" x2="395" y2="255"/>
    <line x1="270" y1="265" x2="395" y2="265"/>
    <line x1="320" y1="230" x2="320" y2="272"/>
    <line x1="350" y1="245" x2="350" y2="272"/>
    <line x1="372" y1="245" x2="372" y2="272"/>

    <!-- Title block labels -->
    <text x="272" y="242" font-family="Arial" font-size="4" fill="black">BAŞLIK / TITLE</text>
    <text x="272" y="252" font-family="Arial" font-size="4" fill="black">PROJE / PROJECT</text>
    <text x="272" y="262" font-family="Arial" font-size="4" fill="black">MÜŞTERİ / CLIENT</text>
    <text x="322" y="242" font-family="Arial" font-size="3" fill="black">ÇIZEN / DRAWN BY</text>
    <text x="352" y="242" font-family="Arial" font-size="3" fill="black">TARİH / DATE</text>
    <text x="374" y="242" font-family="Arial" font-size="3" fill="black">REV.</text>
    <text x="322" y="252" font-family="Arial" font-size="3" fill="black">KONTROL / CHECKED</text>
    <text x="352" y="252" font-family="Arial" font-size="3" fill="black">ÖLÇEK / SCALE</text>
    <text x="374" y="252" font-family="Arial" font-size="3" fill="black">SAYFA / PAGE</text>
    <text x="322" y="262" font-family="Arial" font-size="3" fill="black">ONAY / APPROVED</text>
    <text x="352" y="262" font-family="Arial" font-size="3" fill="black">MAT. / MATERIAL</text>
    <text x="374" y="262" font-family="Arial" font-size="3" fill="black">KÜTÜK / FILE</text>
    
    <!-- FreeCAD editable text fields -->
    <text freecad:editable="DrawingTitle" x="272" y="240" font-family="Arial" font-size="5" font-weight="bold" fill="black">FreeCAD Model</text>
    <text freecad:editable="DrawingProjectName" x="272" y="250" font-family="Arial" font-size="4" fill="black">Task 7.5 Project</text>
    <text freecad:editable="DrawingClient" x="272" y="260" font-family="Arial" font-size="4" fill="black">FreeCAD Platform</text>
    <text freecad:editable="DrawingCreator" x="322" y="240" font-family="Arial" font-size="3" fill="black">FreeCAD Worker</text>
    <text freecad:editable="DrawingDate" x="352" y="240" font-family="Arial" font-size="3" fill="black">2025-01-18</text>
    <text freecad:editable="DrawingRevision" x="374" y="240" font-family="Arial" font-size="3" fill="black">A</text>
    <text freecad:editable="DrawingChecker" x="322" y="250" font-family="Arial" font-size="3" fill="black">-</text>
    <text freecad:editable="DrawingScale" x="352" y="250" font-family="Arial" font-size="3" fill="black">1:1</text>
    <text freecad:editable="DrawingPageNumber" x="374" y="250" font-family="Arial" font-size="3" fill="black">1/1</text>
    <text freecad:editable="DrawingApprover" x="322" y="260" font-family="Arial" font-size="3" fill="black">-</text>
    <text freecad:editable="DrawingMaterial" x="352" y="260" font-family="Arial" font-size="3" fill="black">-</text>
    <text freecad:editable="DrawingFileNumber" x="374" y="260" font-family="Arial" font-size="3" fill="black">001</text>
  </g>

  <!-- Company/Organization block -->
  <g id="company_block">
    <text x="30" y="20" font-family="Arial" font-size="6" font-weight="bold" fill="black">FreeCAD Platform</text>
    <text x="30" y="285" font-family="Arial" font-size="4" fill="gray">Generated by FreeCAD Worker 1.1.0 - Task 7.5</text>
  </g>

  <!-- Scale indicator (larger for A3) -->
  <g id="scale_indicator" stroke="black" stroke-width="0.3">
    <text x="30" y="215" font-family="Arial" font-size="4" fill="black">ÖLÇEK / SCALE:</text>
    <line x1="30" y1="220" x2="130" y2="220"/>
    <line x1="30" y1="218" x2="30" y2="222"/>
    <line x1="130" y1="218" x2="130" y2="222"/>
    <text x="80" y="218" font-family="Arial" font-size="3" text-anchor="middle" fill="black">100mm</text>
  </g>

  <!-- Drawing areas for views (guides, not printed) - larger for A3 -->
  <g id="view_guides" stroke="lightblue" stroke-width="0.25" stroke-dasharray="3,3" fill="none" opacity="0.4">
    <!-- Main view area (Front view) -->
    <rect x="50" y="50" width="120" height="90"/>
    <text x="110" y="145" font-family="Arial" font-size="3" text-anchor="middle" fill="lightblue">Front View</text>
    
    <!-- Side view area (Right view) -->
    <rect x="190" y="50" width="90" height="90"/>
    <text x="235" y="145" font-family="Arial" font-size="3" text-anchor="middle" fill="lightblue">Right View</text>
    
    <!-- Top view area -->
    <rect x="50" y="160" width="120" height="70"/>
    <text x="110" y="200" font-family="Arial" font-size="3" text-anchor="middle" fill="lightblue">Top View</text>
    
    <!-- Isometric view area -->
    <rect x="300" y="50" width="80" height="80"/>
    <text x="340" y="135" font-family="Arial" font-size="3" text-anchor="middle" fill="lightblue">Isometric</text>
    
    <!-- Detail view area -->
    <rect x="190" y="160" width="70" height="70"/>
    <text x="225" y="200" font-family="Arial" font-size="3" text-anchor="middle" fill="lightblue">Detail A</text>
    
    <!-- Section view area -->
    <rect x="300" y="150" width="80" height="60"/>
    <text x="340" y="185" font-family="Arial" font-size="3" text-anchor="middle" fill="lightblue">Section A-A</text>
  </g>

  <!-- Notes area (larger for A3) -->
  <g id="notes_area">
    <text x="30" y="190" font-family="Arial" font-size="4" font-weight="bold" fill="black">NOTLAR / NOTES:</text>
    <line x1="30" y1="193" x2="260" y2="193" stroke="black" stroke-width="0.4"/>
    <!-- Note lines -->
    <line x1="30" y1="200" x2="260" y2="200" stroke="lightgray" stroke-width="0.2"/>
    <line x1="30" y1="207" x2="260" y2="207" stroke="lightgray" stroke-width="0.2"/>
    <line x1="30" y1="214" x2="260" y2="214" stroke="lightgray" stroke-width="0.2"/>
    <line x1="30" y1="221" x2="260" y2="221" stroke="lightgray" stroke-width="0.2"/>
  </g>

  <!-- Technical specifications area -->
  <g id="tech_specs">
    <text x="300" y="210" font-family="Arial" font-size="4" font-weight="bold" fill="black">TEKNİK ÖZELLİKLER / TECHNICAL SPECS:</text>
    <line x1="300" y1="213" x2="395" y2="213" stroke="black" stroke-width="0.4"/>
    <!-- Spec lines -->
    <line x1="300" y1="218" x2="395" y2="218" stroke="lightgray" stroke-width="0.2"/>
    <line x1="300" y1="223" x2="395" y2="223" stroke="lightgray" stroke-width="0.2"/>
  </g>

  <!-- Tolerance block -->
  <g id="tolerance_block" stroke="black" stroke-width="0.5" fill="none">
    <rect x="270" y="190" width="125" height="35"/>
    <line x1="270" y1="200" x2="395" y2="200"/>
    <line x1="270" y1="210" x2="395" y2="210"/>
    <line x1="270" y1="220" x2="395" y2="220"/>
    <line x1="320" y1="190" x2="320" y2="225"/>
    
    <text x="272" y="198" font-family="Arial" font-size="3" fill="black">TOLERANSLAR / TOLERANCES</text>
    <text x="272" y="208" font-family="Arial" font-size="3" fill="black">Doğrusal / Linear: ±0.1mm</text>
    <text x="272" y="218" font-family="Arial" font-size="3" fill="black">Açısal / Angular: ±0.5°</text>
    <text x="322" y="198" font-family="Arial" font-size="3" fill="black">YÜZEY KALİTESİ</text>
    <text x="322" y="208" font-family="Arial" font-size="3" fill="black">SURFACE FINISH</text>
    <text x="322" y="218" font-family="Arial" font-size="3" fill="black">Ra 3.2 μm</text>
  </g>

</svg>